<svg width="741" height="450" viewBox="0 0 741 450" fill="none" xmlns="http://www.w3.org/2000/svg">
<path d="M39.1719 8.79492V420.684" stroke="#F7F7F7" stroke-width="2"/>
<path d="M213.596 8.79492V420.684" stroke="#F7F7F7" stroke-width="2"/>
<path d="M389.499 8.79492V420.684" stroke="#F7F7F7" stroke-width="2"/>
<path d="M563.924 8.79492V420.684" stroke="#F7F7F7" stroke-width="2"/>
<path d="M739.827 8.79492V420.684" stroke="#F7F7F7" stroke-width="2"/>
<path d="M39.9106 421.417H739.088" stroke="#F7F7F7" stroke-width="2"/>
<path d="M39.9106 339.332H739.088" stroke="#F7F7F7" stroke-width="2"/>
<path d="M39.9106 257.248H739.088" stroke="#F7F7F7" stroke-width="2"/>
<path d="M39.9106 173.697H739.088" stroke="#F7F7F7" stroke-width="2"/>
<path d="M39.9106 91.6123H739.088" stroke="#F7F7F7" stroke-width="2"/>
<path d="M39.9106 8.06201H739.088" stroke="#F7F7F7" stroke-width="2"/>
<path d="M39.9106 421.417H739.088" stroke="#F7F7F7" stroke-width="2"/>
<path d="M39.1719 8.79492V420.684" stroke="#F7F7F7" stroke-width="2"/>
<path d="M33.856 434.301V441.411H32.9282V434.301H33.856ZM36.1411 434.301V435.073H30.648V434.301H36.1411ZM38.7632 441.508C38.3954 441.508 38.0617 441.446 37.7622 441.323C37.466 441.196 37.2105 441.018 36.9956 440.791C36.784 440.563 36.6213 440.292 36.5073 439.98C36.3934 439.667 36.3364 439.326 36.3364 438.955V438.75C36.3364 438.32 36.3999 437.937 36.5269 437.602C36.6538 437.264 36.8263 436.977 37.0444 436.743C37.2625 436.508 37.5099 436.331 37.7866 436.21C38.0633 436.09 38.3498 436.03 38.646 436.03C39.0236 436.03 39.3491 436.095 39.6226 436.225C39.8993 436.355 40.1255 436.538 40.3013 436.772C40.4771 437.003 40.6073 437.277 40.6919 437.592C40.7765 437.905 40.8189 438.247 40.8189 438.618V439.023H36.8736V438.286H39.9155V438.217C39.9025 437.983 39.8537 437.755 39.7691 437.534C39.6877 437.312 39.5575 437.13 39.3784 436.987C39.1994 436.844 38.9553 436.772 38.646 436.772C38.4409 436.772 38.2521 436.816 38.0796 436.904C37.9071 436.988 37.759 437.115 37.6353 437.285C37.5116 437.454 37.4155 437.661 37.3472 437.905C37.2788 438.149 37.2446 438.431 37.2446 438.75V438.955C37.2446 439.205 37.2788 439.441 37.3472 439.663C37.4188 439.881 37.5213 440.073 37.6548 440.239C37.7915 440.405 37.9559 440.535 38.148 440.629C38.3433 440.724 38.5646 440.771 38.812 440.771C39.131 440.771 39.4012 440.706 39.6226 440.576C39.8439 440.445 40.0376 440.271 40.2036 440.053L40.7505 440.488C40.6366 440.66 40.4917 440.825 40.3159 440.981C40.1402 441.137 39.9237 441.264 39.6665 441.362C39.4126 441.459 39.1115 441.508 38.7632 441.508ZM42.4839 436.127L43.6411 438.051L44.813 436.127H45.8726L44.1441 438.735L45.9263 441.411H44.8814L43.6607 439.428L42.44 441.411H41.3902L43.1675 438.735L41.4439 436.127H42.4839ZM49.0464 436.127V436.821H46.19V436.127H49.0464ZM47.1568 434.843H48.0601V440.102C48.0601 440.281 48.0877 440.416 48.1431 440.507C48.1984 440.598 48.27 440.659 48.3579 440.688C48.4458 440.717 48.5402 440.732 48.6411 440.732C48.716 440.732 48.7941 440.725 48.8755 440.712C48.9601 440.696 49.0236 440.683 49.0659 440.673L49.0708 441.411C48.9992 441.433 48.9048 441.455 48.7876 441.474C48.6737 441.497 48.5353 441.508 48.3726 441.508C48.1512 441.508 47.9478 441.464 47.7622 441.376C47.5767 441.289 47.4286 441.142 47.3179 440.937C47.2105 440.729 47.1568 440.449 47.1568 440.097V434.843Z" fill="#999999"/>
<path d="M208.65 434.301V441.411H207.723V434.301H208.65ZM210.936 434.301V435.073H205.442V434.301H210.936ZM213.558 441.508C213.19 441.508 212.856 441.446 212.557 441.323C212.26 441.196 212.005 441.018 211.79 440.791C211.578 440.563 211.416 440.292 211.302 439.98C211.188 439.667 211.131 439.326 211.131 438.955V438.75C211.131 438.32 211.194 437.937 211.321 437.602C211.448 437.264 211.621 436.977 211.839 436.743C212.057 436.508 212.304 436.331 212.581 436.21C212.858 436.09 213.144 436.03 213.44 436.03C213.818 436.03 214.144 436.095 214.417 436.225C214.694 436.355 214.92 436.538 215.096 436.772C215.271 437.003 215.402 437.277 215.486 437.592C215.571 437.905 215.613 438.247 215.613 438.618V439.023H211.668V438.286H214.71V438.217C214.697 437.983 214.648 437.755 214.563 437.534C214.482 437.312 214.352 437.13 214.173 436.987C213.994 436.844 213.75 436.772 213.44 436.772C213.235 436.772 213.047 436.816 212.874 436.904C212.702 436.988 212.553 437.115 212.43 437.285C212.306 437.454 212.21 437.661 212.142 437.905C212.073 438.149 212.039 438.431 212.039 438.75V438.955C212.039 439.205 212.073 439.441 212.142 439.663C212.213 439.881 212.316 440.073 212.449 440.239C212.586 440.405 212.75 440.535 212.942 440.629C213.138 440.724 213.359 440.771 213.606 440.771C213.925 440.771 214.196 440.706 214.417 440.576C214.638 440.445 214.832 440.271 214.998 440.053L215.545 440.488C215.431 440.66 215.286 440.825 215.11 440.981C214.935 441.137 214.718 441.264 214.461 441.362C214.207 441.459 213.906 441.508 213.558 441.508ZM217.278 436.127L218.436 438.051L219.607 436.127H220.667L218.938 438.735L220.721 441.411H219.676L218.455 439.428L217.234 441.411H216.185L217.962 438.735L216.238 436.127H217.278ZM223.841 436.127V436.821H220.984V436.127H223.841ZM221.951 434.843H222.855V440.102C222.855 440.281 222.882 440.416 222.938 440.507C222.993 440.598 223.064 440.659 223.152 440.688C223.24 440.717 223.335 440.732 223.436 440.732C223.51 440.732 223.589 440.725 223.67 440.712C223.755 440.696 223.818 440.683 223.86 440.673L223.865 441.411C223.794 441.433 223.699 441.455 223.582 441.474C223.468 441.497 223.33 441.508 223.167 441.508C222.946 441.508 222.742 441.464 222.557 441.376C222.371 441.289 222.223 441.142 222.112 440.937C222.005 440.729 221.951 440.449 221.951 440.097V434.843Z" fill="#999999"/>
<path d="M383.444 434.301V441.411H382.517V434.301H383.444ZM385.73 434.301V435.073H380.236V434.301H385.73ZM388.352 441.508C387.984 441.508 387.65 441.446 387.351 441.323C387.054 441.196 386.799 441.018 386.584 440.791C386.372 440.563 386.21 440.292 386.096 439.98C385.982 439.667 385.925 439.326 385.925 438.955V438.75C385.925 438.32 385.988 437.937 386.115 437.602C386.242 437.264 386.415 436.977 386.633 436.743C386.851 436.508 387.098 436.331 387.375 436.21C387.652 436.09 387.938 436.03 388.234 436.03C388.612 436.03 388.938 436.095 389.211 436.225C389.488 436.355 389.714 436.538 389.89 436.772C390.065 437.003 390.196 437.277 390.28 437.592C390.365 437.905 390.407 438.247 390.407 438.618V439.023H386.462V438.286H389.504V438.217C389.491 437.983 389.442 437.755 389.357 437.534C389.276 437.312 389.146 437.13 388.967 436.987C388.788 436.844 388.544 436.772 388.234 436.772C388.029 436.772 387.841 436.816 387.668 436.904C387.495 436.988 387.347 437.115 387.224 437.285C387.1 437.454 387.004 437.661 386.936 437.905C386.867 438.149 386.833 438.431 386.833 438.75V438.955C386.833 439.205 386.867 439.441 386.936 439.663C387.007 439.881 387.11 440.073 387.243 440.239C387.38 440.405 387.544 440.535 387.736 440.629C387.932 440.724 388.153 440.771 388.4 440.771C388.719 440.771 388.99 440.706 389.211 440.576C389.432 440.445 389.626 440.271 389.792 440.053L390.339 440.488C390.225 440.66 390.08 440.825 389.904 440.981C389.729 441.137 389.512 441.264 389.255 441.362C389.001 441.459 388.7 441.508 388.352 441.508ZM392.072 436.127L393.23 438.051L394.401 436.127H395.461L393.732 438.735L395.515 441.411H394.47L393.249 439.428L392.028 441.411H390.979L392.756 438.735L391.032 436.127H392.072ZM398.635 436.127V436.821H395.778V436.127H398.635ZM396.745 434.843H397.648V440.102C397.648 440.281 397.676 440.416 397.731 440.507C397.787 440.598 397.858 440.659 397.946 440.688C398.034 440.717 398.129 440.732 398.23 440.732C398.304 440.732 398.383 440.725 398.464 440.712C398.549 440.696 398.612 440.683 398.654 440.673L398.659 441.411C398.588 441.433 398.493 441.455 398.376 441.474C398.262 441.497 398.124 441.508 397.961 441.508C397.74 441.508 397.536 441.464 397.351 441.376C397.165 441.289 397.017 441.142 396.906 440.937C396.799 440.729 396.745 440.449 396.745 440.097V434.843Z" fill="#999999"/>
<path d="M558.239 434.301V441.411H557.311V434.301H558.239ZM560.524 434.301V435.073H555.031V434.301H560.524ZM563.146 441.508C562.778 441.508 562.445 441.446 562.145 441.323C561.849 441.196 561.593 441.018 561.378 440.791C561.167 440.563 561.004 440.292 560.89 439.98C560.776 439.667 560.719 439.326 560.719 438.955V438.75C560.719 438.32 560.783 437.937 560.91 437.602C561.037 437.264 561.209 436.977 561.427 436.743C561.645 436.508 561.893 436.331 562.169 436.21C562.446 436.09 562.733 436.03 563.029 436.03C563.406 436.03 563.732 436.095 564.005 436.225C564.282 436.355 564.508 436.538 564.684 436.772C564.86 437.003 564.99 437.277 565.075 437.592C565.159 437.905 565.202 438.247 565.202 438.618V439.023H561.256V438.286H564.298V438.217C564.285 437.983 564.237 437.755 564.152 437.534C564.07 437.312 563.94 437.13 563.761 436.987C563.582 436.844 563.338 436.772 563.029 436.772C562.824 436.772 562.635 436.816 562.462 436.904C562.29 436.988 562.142 437.115 562.018 437.285C561.894 437.454 561.798 437.661 561.73 437.905C561.662 438.149 561.627 438.431 561.627 438.75V438.955C561.627 439.205 561.662 439.441 561.73 439.663C561.802 439.881 561.904 440.073 562.038 440.239C562.174 440.405 562.339 440.535 562.531 440.629C562.726 440.724 562.947 440.771 563.195 440.771C563.514 440.771 563.784 440.706 564.005 440.576C564.227 440.445 564.42 440.271 564.586 440.053L565.133 440.488C565.019 440.66 564.875 440.825 564.699 440.981C564.523 441.137 564.306 441.264 564.049 441.362C563.795 441.459 563.494 441.508 563.146 441.508ZM566.867 436.127L568.024 438.051L569.196 436.127H570.255L568.527 438.735L570.309 441.411H569.264L568.043 439.428L566.823 441.411H565.773L567.55 438.735L565.827 436.127H566.867ZM573.429 436.127V436.821H570.573V436.127H573.429ZM571.54 434.843H572.443V440.102C572.443 440.281 572.471 440.416 572.526 440.507C572.581 440.598 572.653 440.659 572.741 440.688C572.829 440.717 572.923 440.732 573.024 440.732C573.099 440.732 573.177 440.725 573.258 440.712C573.343 440.696 573.406 440.683 573.449 440.673L573.454 441.411C573.382 441.433 573.288 441.455 573.17 441.474C573.056 441.497 572.918 441.508 572.755 441.508C572.534 441.508 572.331 441.464 572.145 441.376C571.959 441.289 571.811 441.142 571.701 440.937C571.593 440.729 571.54 440.449 571.54 440.097V434.843Z" fill="#999999"/>
<path d="M719.164 434.301V441.411H718.236V434.301H719.164ZM721.449 434.301V435.073H715.956V434.301H721.449ZM724.071 441.508C723.703 441.508 723.369 441.446 723.07 441.323C722.774 441.196 722.518 441.018 722.303 440.791C722.092 440.563 721.929 440.292 721.815 439.98C721.701 439.667 721.644 439.326 721.644 438.955V438.75C721.644 438.32 721.708 437.937 721.834 437.602C721.961 437.264 722.134 436.977 722.352 436.743C722.57 436.508 722.818 436.331 723.094 436.21C723.371 436.09 723.657 436.03 723.954 436.03C724.331 436.03 724.657 436.095 724.93 436.225C725.207 436.355 725.433 436.538 725.609 436.772C725.785 437.003 725.915 437.277 726 437.592C726.084 437.905 726.126 438.247 726.126 438.618V439.023H722.181V438.286H725.223V438.217C725.21 437.983 725.161 437.755 725.077 437.534C724.995 437.312 724.865 437.13 724.686 436.987C724.507 436.844 724.263 436.772 723.954 436.772C723.749 436.772 723.56 436.816 723.387 436.904C723.215 436.988 723.067 437.115 722.943 437.285C722.819 437.454 722.723 437.661 722.655 437.905C722.586 438.149 722.552 438.431 722.552 438.75V438.955C722.552 439.205 722.586 439.441 722.655 439.663C722.726 439.881 722.829 440.073 722.962 440.239C723.099 440.405 723.264 440.535 723.456 440.629C723.651 440.724 723.872 440.771 724.12 440.771C724.439 440.771 724.709 440.706 724.93 440.576C725.152 440.445 725.345 440.271 725.511 440.053L726.058 440.488C725.944 440.66 725.799 440.825 725.624 440.981C725.448 441.137 725.231 441.264 724.974 441.362C724.72 441.459 724.419 441.508 724.071 441.508ZM727.792 436.127L728.949 438.051L730.121 436.127H731.18L729.452 438.735L731.234 441.411H730.189L728.968 439.428L727.748 441.411H726.698L728.475 438.735L726.751 436.127H727.792ZM734.354 436.127V436.821H731.498V436.127H734.354ZM732.464 434.843H733.368V440.102C733.368 440.281 733.395 440.416 733.451 440.507C733.506 440.598 733.578 440.659 733.666 440.688C733.753 440.717 733.848 440.732 733.949 440.732C734.024 440.732 734.102 440.725 734.183 440.712C734.268 440.696 734.331 440.683 734.374 440.673L734.378 441.411C734.307 441.433 734.212 441.455 734.095 441.474C733.981 441.497 733.843 441.508 733.68 441.508C733.459 441.508 733.255 441.464 733.07 441.376C732.884 441.289 732.736 441.142 732.626 440.937C732.518 440.729 732.464 440.449 732.464 440.097V434.843Z" fill="#999999"/>
<path d="M24.4433 417.944V419.245C24.4433 419.944 24.3808 420.534 24.2558 421.014C24.1308 421.495 23.9511 421.881 23.7167 422.174C23.4823 422.467 23.1991 422.68 22.8671 422.813C22.539 422.942 22.1679 423.006 21.7538 423.006C21.4257 423.006 21.123 422.965 20.8456 422.883C20.5683 422.801 20.3183 422.67 20.0956 422.491C19.8769 422.307 19.6894 422.069 19.5331 421.776C19.3769 421.483 19.2577 421.127 19.1757 420.709C19.0937 420.292 19.0526 419.803 19.0526 419.245V417.944C19.0526 417.245 19.1151 416.659 19.2401 416.186C19.3691 415.713 19.5507 415.334 19.7851 415.049C20.0194 414.76 20.3007 414.553 20.6288 414.428C20.9608 414.303 21.3319 414.241 21.7421 414.241C22.0741 414.241 22.3788 414.282 22.6562 414.364C22.9374 414.442 23.1874 414.569 23.4062 414.745C23.6249 414.917 23.8105 415.147 23.9628 415.436C24.1191 415.721 24.2382 416.071 24.3202 416.485C24.4023 416.899 24.4433 417.385 24.4433 417.944ZM23.3534 419.42V417.762C23.3534 417.379 23.33 417.043 23.2831 416.754C23.2401 416.461 23.1757 416.211 23.0898 416.004C23.0038 415.797 22.8944 415.629 22.7616 415.5C22.6327 415.372 22.4823 415.278 22.3105 415.219C22.1425 415.157 21.953 415.125 21.7421 415.125C21.4843 415.125 21.2558 415.174 21.0566 415.272C20.8573 415.366 20.6894 415.516 20.5526 415.723C20.4198 415.93 20.3183 416.202 20.248 416.538C20.1776 416.874 20.1425 417.282 20.1425 417.762V419.42C20.1425 419.803 20.164 420.141 20.2069 420.434C20.2538 420.727 20.3222 420.981 20.412 421.196C20.5019 421.407 20.6112 421.581 20.7401 421.717C20.8691 421.854 21.0175 421.956 21.1855 422.022C21.3573 422.084 21.5468 422.116 21.7538 422.116C22.0194 422.116 22.2519 422.065 22.4511 421.963C22.6503 421.862 22.8163 421.704 22.9491 421.489C23.0858 421.27 23.1874 420.991 23.2538 420.651C23.3202 420.307 23.3534 419.897 23.3534 419.42Z" fill="#999999"/>
<path d="M17.9276 339.914V340.805H12.3436V340.025L15.1385 336.914C15.4822 336.531 15.7479 336.207 15.9354 335.941C16.1268 335.672 16.2596 335.432 16.3338 335.221C16.4119 335.006 16.451 334.787 16.451 334.564C16.451 334.283 16.3924 334.029 16.2752 333.803C16.1619 333.572 15.994 333.389 15.7713 333.252C15.5487 333.115 15.2791 333.047 14.9627 333.047C14.5838 333.047 14.2674 333.121 14.0135 333.27C13.7635 333.414 13.576 333.617 13.451 333.879C13.326 334.141 13.2635 334.441 13.2635 334.781H12.1795C12.1795 334.301 12.285 333.861 12.4959 333.463C12.7069 333.064 13.0194 332.748 13.4334 332.514C13.8475 332.275 14.3572 332.156 14.9627 332.156C15.5018 332.156 15.9627 332.252 16.3455 332.443C16.7283 332.631 17.0213 332.896 17.2244 333.24C17.4315 333.58 17.535 333.979 17.535 334.436C17.535 334.686 17.492 334.939 17.4061 335.197C17.324 335.451 17.2088 335.705 17.0604 335.959C16.9158 336.213 16.7459 336.463 16.5506 336.709C16.3592 336.955 16.1541 337.197 15.9354 337.436L13.6502 339.914H17.9276ZM24.4432 335.859V337.16C24.4432 337.859 24.3807 338.449 24.2557 338.93C24.1307 339.41 23.951 339.797 23.7166 340.09C23.4822 340.383 23.199 340.596 22.867 340.729C22.5389 340.857 22.1678 340.922 21.7537 340.922C21.4256 340.922 21.1229 340.881 20.8455 340.799C20.5682 340.717 20.3182 340.586 20.0955 340.406C19.8768 340.223 19.6893 339.984 19.533 339.691C19.3768 339.398 19.2576 339.043 19.1756 338.625C19.0936 338.207 19.0526 337.719 19.0526 337.16V335.859C19.0526 335.16 19.1151 334.574 19.2401 334.102C19.369 333.629 19.5506 333.25 19.785 332.965C20.0194 332.676 20.3006 332.469 20.6287 332.344C20.9608 332.219 21.3319 332.156 21.742 332.156C22.074 332.156 22.3787 332.197 22.6561 332.279C22.9373 332.357 23.1873 332.484 23.4061 332.66C23.6248 332.832 23.8104 333.062 23.9627 333.352C24.119 333.637 24.2381 333.986 24.3201 334.4C24.4022 334.814 24.4432 335.301 24.4432 335.859ZM23.3533 337.336V335.678C23.3533 335.295 23.3299 334.959 23.283 334.67C23.2401 334.377 23.1756 334.127 23.0897 333.92C23.0037 333.713 22.8944 333.545 22.7615 333.416C22.6326 333.287 22.4822 333.193 22.3104 333.135C22.1424 333.072 21.9529 333.041 21.742 333.041C21.4842 333.041 21.2557 333.09 21.0565 333.188C20.8572 333.281 20.6893 333.432 20.5526 333.639C20.4197 333.846 20.3182 334.117 20.2479 334.453C20.1776 334.789 20.1424 335.197 20.1424 335.678V337.336C20.1424 337.719 20.1639 338.057 20.2069 338.35C20.2537 338.643 20.3221 338.896 20.4119 339.111C20.5018 339.322 20.6112 339.496 20.7401 339.633C20.869 339.77 21.0174 339.871 21.1854 339.938C21.3572 340 21.5467 340.031 21.7537 340.031C22.0194 340.031 22.2518 339.98 22.451 339.879C22.6502 339.777 22.8162 339.619 22.949 339.404C23.0858 339.186 23.1873 338.906 23.2537 338.566C23.3201 338.223 23.3533 337.812 23.3533 337.336Z" fill="#999999"/>
<path d="M18.1033 255.849V256.739H11.9393V256.101L15.7596 250.188H16.6444L15.6951 251.899L13.1697 255.849H18.1033ZM16.9139 250.188V258.72H15.8299V250.188H16.9139ZM24.4432 253.774V255.075C24.4432 255.774 24.3807 256.364 24.2557 256.845C24.1307 257.325 23.951 257.712 23.7166 258.005C23.4822 258.298 23.199 258.511 22.867 258.644C22.5389 258.772 22.1678 258.837 21.7537 258.837C21.4256 258.837 21.1229 258.796 20.8455 258.714C20.5682 258.632 20.3182 258.501 20.0955 258.321C19.8768 258.138 19.6893 257.899 19.533 257.606C19.3768 257.313 19.2576 256.958 19.1756 256.54C19.0936 256.122 19.0526 255.634 19.0526 255.075V253.774C19.0526 253.075 19.1151 252.489 19.2401 252.017C19.369 251.544 19.5506 251.165 19.785 250.88C20.0194 250.591 20.3006 250.384 20.6287 250.259C20.9608 250.134 21.3319 250.071 21.742 250.071C22.074 250.071 22.3787 250.112 22.6561 250.194C22.9373 250.272 23.1873 250.399 23.4061 250.575C23.6248 250.747 23.8104 250.978 23.9627 251.267C24.119 251.552 24.2381 251.901 24.3201 252.315C24.4022 252.729 24.4432 253.216 24.4432 253.774ZM23.3533 255.251V253.593C23.3533 253.21 23.3299 252.874 23.283 252.585C23.2401 252.292 23.1756 252.042 23.0897 251.835C23.0037 251.628 22.8944 251.46 22.7615 251.331C22.6326 251.202 22.4822 251.108 22.3104 251.05C22.1424 250.987 21.9529 250.956 21.742 250.956C21.4842 250.956 21.2557 251.005 21.0565 251.103C20.8572 251.196 20.6893 251.347 20.5526 251.554C20.4197 251.761 20.3182 252.032 20.2479 252.368C20.1776 252.704 20.1424 253.112 20.1424 253.593V255.251C20.1424 255.634 20.1639 255.972 20.2069 256.265C20.2537 256.558 20.3221 256.812 20.4119 257.026C20.5018 257.237 20.6112 257.411 20.7401 257.548C20.869 257.685 21.0174 257.786 21.1854 257.853C21.3572 257.915 21.5467 257.946 21.7537 257.946C22.0194 257.946 22.2518 257.896 22.451 257.794C22.6502 257.692 22.8162 257.534 22.949 257.319C23.0858 257.101 23.1873 256.821 23.2537 256.481C23.3201 256.138 23.3533 255.728 23.3533 255.251Z" fill="#999999"/>
<path d="M16.4979 168.092H16.5916V169.012H16.4979C15.9237 169.012 15.4432 169.106 15.0565 169.293C14.6697 169.477 14.3631 169.725 14.1365 170.038C13.91 170.346 13.7459 170.694 13.6444 171.081C13.5467 171.467 13.4979 171.86 13.4979 172.258V173.512C13.4979 173.891 13.5428 174.227 13.6326 174.52C13.7225 174.809 13.8455 175.053 14.0018 175.252C14.158 175.452 14.3338 175.602 14.5291 175.704C14.7283 175.805 14.9354 175.856 15.1502 175.856C15.4002 175.856 15.6229 175.809 15.8182 175.715C16.0135 175.618 16.1776 175.483 16.3104 175.311C16.4471 175.135 16.5506 174.928 16.6209 174.69C16.6912 174.452 16.7264 174.19 16.7264 173.905C16.7264 173.651 16.6951 173.407 16.6326 173.172C16.5701 172.934 16.4744 172.723 16.3455 172.54C16.2166 172.352 16.0545 172.206 15.8592 172.1C15.6678 171.991 15.4393 171.936 15.1737 171.936C14.8729 171.936 14.5916 172.01 14.3299 172.159C14.0721 172.303 13.8592 172.495 13.6912 172.733C13.5272 172.967 13.4334 173.223 13.41 173.5L12.8358 173.495C12.8904 173.057 12.992 172.684 13.1404 172.375C13.2928 172.063 13.4803 171.809 13.7029 171.614C13.9295 171.415 14.1815 171.27 14.4588 171.18C14.7401 171.086 15.0369 171.04 15.3494 171.04C15.7752 171.04 16.1424 171.12 16.451 171.28C16.7596 171.44 17.0135 171.655 17.2127 171.924C17.4119 172.19 17.5584 172.491 17.6522 172.827C17.7498 173.159 17.7987 173.5 17.7987 173.852C17.7987 174.254 17.742 174.631 17.6287 174.983C17.5154 175.334 17.3455 175.643 17.119 175.909C16.8963 176.174 16.6209 176.381 16.2928 176.53C15.9647 176.678 15.5838 176.752 15.1502 176.752C14.6893 176.752 14.2869 176.659 13.9432 176.471C13.5994 176.28 13.3143 176.026 13.0877 175.709C12.8612 175.393 12.6912 175.042 12.5779 174.655C12.4647 174.268 12.408 173.875 12.408 173.477V172.967C12.408 172.366 12.4686 171.776 12.5897 171.198C12.7108 170.62 12.9197 170.096 13.2166 169.627C13.5174 169.159 13.9334 168.786 14.4647 168.508C14.9959 168.231 15.6737 168.092 16.4979 168.092ZM24.4432 171.69V172.991C24.4432 173.69 24.3807 174.28 24.2557 174.76C24.1307 175.241 23.951 175.627 23.7166 175.92C23.4822 176.213 23.199 176.426 22.867 176.559C22.5389 176.688 22.1678 176.752 21.7537 176.752C21.4256 176.752 21.1229 176.711 20.8455 176.629C20.5682 176.547 20.3182 176.417 20.0955 176.237C19.8768 176.053 19.6893 175.815 19.533 175.522C19.3768 175.229 19.2576 174.874 19.1756 174.456C19.0936 174.038 19.0526 173.549 19.0526 172.991V171.69C19.0526 170.991 19.1151 170.405 19.2401 169.932C19.369 169.459 19.5506 169.081 19.785 168.795C20.0194 168.506 20.3006 168.299 20.6287 168.174C20.9608 168.049 21.3319 167.987 21.742 167.987C22.074 167.987 22.3787 168.028 22.6561 168.11C22.9373 168.188 23.1873 168.315 23.4061 168.491C23.6248 168.663 23.8104 168.893 23.9627 169.182C24.119 169.467 24.2381 169.817 24.3201 170.231C24.4022 170.645 24.4432 171.131 24.4432 171.69ZM23.3533 173.167V171.508C23.3533 171.125 23.3299 170.79 23.283 170.5C23.2401 170.208 23.1756 169.958 23.0897 169.75C23.0037 169.543 22.8944 169.375 22.7615 169.247C22.6326 169.118 22.4822 169.024 22.3104 168.965C22.1424 168.903 21.9529 168.872 21.742 168.872C21.4842 168.872 21.2557 168.92 21.0565 169.018C20.8572 169.112 20.6893 169.262 20.5526 169.469C20.4197 169.676 20.3182 169.948 20.2479 170.284C20.1776 170.62 20.1424 171.028 20.1424 171.508V173.167C20.1424 173.549 20.1639 173.887 20.2069 174.18C20.2537 174.473 20.3221 174.727 20.4119 174.942C20.5018 175.153 20.6112 175.327 20.7401 175.463C20.869 175.6 21.0174 175.702 21.1854 175.768C21.3572 175.831 21.5467 175.862 21.7537 175.862C22.0194 175.862 22.2518 175.811 22.451 175.709C22.6502 175.608 22.8162 175.45 22.949 175.235C23.0858 175.016 23.1873 174.737 23.2537 174.397C23.3201 174.053 23.3533 173.643 23.3533 173.167Z" fill="#999999"/>
<path d="M17.7166 92.2422C17.7166 92.7617 17.5955 93.2031 17.3533 93.5664C17.1151 93.9258 16.7908 94.1992 16.3807 94.3867C15.9744 94.5742 15.5154 94.668 15.0037 94.668C14.492 94.668 14.0311 94.5742 13.6209 94.3867C13.2108 94.1992 12.8865 93.9258 12.6483 93.5664C12.41 93.2031 12.2908 92.7617 12.2908 92.2422C12.2908 91.9023 12.3553 91.5918 12.4842 91.3105C12.617 91.0254 12.8026 90.7773 13.0408 90.5664C13.283 90.3555 13.5682 90.1934 13.8963 90.0801C14.2283 89.9629 14.5936 89.9043 14.992 89.9043C15.5154 89.9043 15.9822 90.0059 16.3924 90.209C16.8026 90.4082 17.1248 90.6836 17.3592 91.0352C17.5975 91.3867 17.7166 91.7891 17.7166 92.2422ZM16.6268 92.2188C16.6268 91.9023 16.5584 91.623 16.4217 91.3809C16.285 91.1348 16.0936 90.9434 15.8475 90.8066C15.6014 90.6699 15.3162 90.6016 14.992 90.6016C14.66 90.6016 14.3729 90.6699 14.1307 90.8066C13.8924 90.9434 13.7069 91.1348 13.574 91.3809C13.4412 91.623 13.3748 91.9023 13.3748 92.2188C13.3748 92.5469 13.4393 92.8281 13.5682 93.0625C13.701 93.293 13.8885 93.4707 14.1307 93.5957C14.3768 93.7168 14.6678 93.7773 15.0037 93.7773C15.3397 93.7773 15.6287 93.7168 15.8709 93.5957C16.1131 93.4707 16.2987 93.293 16.4276 93.0625C16.5604 92.8281 16.6268 92.5469 16.6268 92.2188ZM17.5174 88.2402C17.5174 88.6543 17.408 89.0273 17.1893 89.3594C16.9705 89.6914 16.6717 89.9531 16.2928 90.1445C15.9139 90.3359 15.4842 90.4316 15.0037 90.4316C14.5154 90.4316 14.0799 90.3359 13.6971 90.1445C13.3182 89.9531 13.0213 89.6914 12.8065 89.3594C12.5916 89.0273 12.4842 88.6543 12.4842 88.2402C12.4842 87.7441 12.5916 87.3223 12.8065 86.9746C13.0252 86.627 13.324 86.3613 13.7029 86.1777C14.0819 85.9941 14.5135 85.9023 14.9979 85.9023C15.4862 85.9023 15.9197 85.9941 16.2987 86.1777C16.6776 86.3613 16.9744 86.627 17.1893 86.9746C17.408 87.3223 17.5174 87.7441 17.5174 88.2402ZM16.4334 88.2578C16.4334 87.9727 16.3729 87.7207 16.2518 87.502C16.1307 87.2832 15.9627 87.1113 15.7479 86.9863C15.533 86.8574 15.283 86.793 14.9979 86.793C14.7127 86.793 14.4627 86.8535 14.2479 86.9746C14.0369 87.0918 13.8709 87.2598 13.7498 87.4785C13.6326 87.6973 13.574 87.957 13.574 88.2578C13.574 88.5508 13.6326 88.8066 13.7498 89.0254C13.8709 89.2441 14.0389 89.4141 14.2537 89.5352C14.4686 89.6562 14.7186 89.7168 15.0037 89.7168C15.2889 89.7168 15.5369 89.6562 15.7479 89.5352C15.9627 89.4141 16.1307 89.2441 16.2518 89.0254C16.3729 88.8066 16.4334 88.5508 16.4334 88.2578ZM24.4432 89.6055V90.9062C24.4432 91.6055 24.3807 92.1953 24.2557 92.6758C24.1307 93.1562 23.951 93.543 23.7166 93.8359C23.4822 94.1289 23.199 94.3418 22.867 94.4746C22.5389 94.6035 22.1678 94.668 21.7537 94.668C21.4256 94.668 21.1229 94.627 20.8455 94.5449C20.5682 94.4629 20.3182 94.332 20.0955 94.1523C19.8768 93.9688 19.6893 93.7305 19.533 93.4375C19.3768 93.1445 19.2576 92.7891 19.1756 92.3711C19.0936 91.9531 19.0526 91.4648 19.0526 90.9062V89.6055C19.0526 88.9062 19.1151 88.3203 19.2401 87.8477C19.369 87.375 19.5506 86.9961 19.785 86.7109C20.0194 86.4219 20.3006 86.2148 20.6287 86.0898C20.9608 85.9648 21.3319 85.9023 21.742 85.9023C22.074 85.9023 22.3787 85.9434 22.6561 86.0254C22.9373 86.1035 23.1873 86.2305 23.4061 86.4062C23.6248 86.5781 23.8104 86.8086 23.9627 87.0977C24.119 87.3828 24.2381 87.7324 24.3201 88.1465C24.4022 88.5605 24.4432 89.0469 24.4432 89.6055ZM23.3533 91.082V89.4238C23.3533 89.041 23.3299 88.7051 23.283 88.416C23.2401 88.123 23.1756 87.873 23.0897 87.666C23.0037 87.459 22.8944 87.291 22.7615 87.1621C22.6326 87.0332 22.4822 86.9395 22.3104 86.8809C22.1424 86.8184 21.9529 86.7871 21.742 86.7871C21.4842 86.7871 21.2557 86.8359 21.0565 86.9336C20.8572 87.0273 20.6893 87.1777 20.5526 87.3848C20.4197 87.5918 20.3182 87.8633 20.2479 88.1992C20.1776 88.5352 20.1424 88.9434 20.1424 89.4238V91.082C20.1424 91.4648 20.1639 91.8027 20.2069 92.0957C20.2537 92.3887 20.3221 92.6426 20.4119 92.8574C20.5018 93.0684 20.6112 93.2422 20.7401 93.3789C20.869 93.5156 21.0174 93.6172 21.1854 93.6836C21.3572 93.7461 21.5467 93.7773 21.7537 93.7773C22.0194 93.7773 22.2518 93.7266 22.451 93.625C22.6502 93.5234 22.8162 93.3652 22.949 93.1504C23.0858 92.9316 23.1873 92.6523 23.2537 92.3125C23.3201 91.9688 23.3533 91.5586 23.3533 91.082Z" fill="#999999"/>
<path d="M9.15047 2.42188V11H8.06648V3.77539L5.88093 4.57227V3.59375L8.98054 2.42188H9.15047ZM17.6934 6.05469V7.35547C17.6934 8.05469 17.6309 8.64453 17.5059 9.125C17.3809 9.60547 17.2012 9.99219 16.9669 10.2852C16.7325 10.5781 16.4493 10.791 16.1173 10.9238C15.7891 11.0527 15.418 11.1172 15.004 11.1172C14.6759 11.1172 14.3731 11.0762 14.0958 10.9941C13.8184 10.9121 13.5684 10.7812 13.3458 10.6016C13.127 10.418 12.9395 10.1797 12.7833 9.88672C12.627 9.59375 12.5079 9.23828 12.4259 8.82031C12.3438 8.40234 12.3028 7.91406 12.3028 7.35547V6.05469C12.3028 5.35547 12.3653 4.76953 12.4903 4.29688C12.6192 3.82422 12.8009 3.44531 13.0352 3.16016C13.2696 2.87109 13.5509 2.66406 13.879 2.53906C14.211 2.41406 14.5821 2.35156 14.9923 2.35156C15.3243 2.35156 15.629 2.39258 15.9063 2.47461C16.1876 2.55273 16.4376 2.67969 16.6563 2.85547C16.8751 3.02734 17.0606 3.25781 17.213 3.54688C17.3692 3.83203 17.4884 4.18164 17.5704 4.5957C17.6524 5.00977 17.6934 5.49609 17.6934 6.05469ZM16.6036 7.53125V5.87305C16.6036 5.49023 16.5802 5.1543 16.5333 4.86523C16.4903 4.57227 16.4259 4.32227 16.3399 4.11523C16.254 3.9082 16.1446 3.74023 16.0118 3.61133C15.8829 3.48242 15.7325 3.38867 15.5606 3.33008C15.3927 3.26758 15.2032 3.23633 14.9923 3.23633C14.7344 3.23633 14.5059 3.28516 14.3067 3.38281C14.1075 3.47656 13.9395 3.62695 13.8028 3.83398C13.67 4.04102 13.5684 4.3125 13.4981 4.64844C13.4278 4.98438 13.3927 5.39258 13.3927 5.87305V7.53125C13.3927 7.91406 13.4141 8.25195 13.4571 8.54492C13.504 8.83789 13.5723 9.0918 13.6622 9.30664C13.752 9.51758 13.8614 9.69141 13.9903 9.82812C14.1192 9.96484 14.2677 10.0664 14.4356 10.1328C14.6075 10.1953 14.7969 10.2266 15.004 10.2266C15.2696 10.2266 15.502 10.1758 15.7012 10.0742C15.9005 9.97266 16.0665 9.81445 16.1993 9.59961C16.336 9.38086 16.4376 9.10156 16.504 8.76172C16.5704 8.41797 16.6036 8.00781 16.6036 7.53125ZM24.4434 6.05469V7.35547C24.4434 8.05469 24.3809 8.64453 24.2559 9.125C24.1309 9.60547 23.9512 9.99219 23.7169 10.2852C23.4825 10.5781 23.1993 10.791 22.8673 10.9238C22.5391 11.0527 22.168 11.1172 21.754 11.1172C21.4259 11.1172 21.1231 11.0762 20.8458 10.9941C20.5684 10.9121 20.3184 10.7812 20.0958 10.6016C19.877 10.418 19.6895 10.1797 19.5333 9.88672C19.377 9.59375 19.2579 9.23828 19.1759 8.82031C19.0938 8.40234 19.0528 7.91406 19.0528 7.35547V6.05469C19.0528 5.35547 19.1153 4.76953 19.2403 4.29688C19.3692 3.82422 19.5509 3.44531 19.7852 3.16016C20.0196 2.87109 20.3009 2.66406 20.629 2.53906C20.961 2.41406 21.3321 2.35156 21.7423 2.35156C22.0743 2.35156 22.379 2.39258 22.6563 2.47461C22.9376 2.55273 23.1876 2.67969 23.4063 2.85547C23.6251 3.02734 23.8106 3.25781 23.963 3.54688C24.1192 3.83203 24.2384 4.18164 24.3204 4.5957C24.4024 5.00977 24.4434 5.49609 24.4434 6.05469ZM23.3536 7.53125V5.87305C23.3536 5.49023 23.3302 5.1543 23.2833 4.86523C23.2403 4.57227 23.1759 4.32227 23.0899 4.11523C23.004 3.9082 22.8946 3.74023 22.7618 3.61133C22.6329 3.48242 22.4825 3.38867 22.3106 3.33008C22.1427 3.26758 21.9532 3.23633 21.7423 3.23633C21.4844 3.23633 21.2559 3.28516 21.0567 3.38281C20.8575 3.47656 20.6895 3.62695 20.5528 3.83398C20.42 4.04102 20.3184 4.3125 20.2481 4.64844C20.1778 4.98438 20.1427 5.39258 20.1427 5.87305V7.53125C20.1427 7.91406 20.1641 8.25195 20.2071 8.54492C20.254 8.83789 20.3223 9.0918 20.4122 9.30664C20.502 9.51758 20.6114 9.69141 20.7403 9.82812C20.8692 9.96484 21.0177 10.0664 21.1856 10.1328C21.3575 10.1953 21.5469 10.2266 21.754 10.2266C22.0196 10.2266 22.252 10.1758 22.4512 10.0742C22.6505 9.97266 22.8165 9.81445 22.9493 9.59961C23.086 9.38086 23.1876 9.10156 23.254 8.76172C23.3204 8.41797 23.3536 8.00781 23.3536 7.53125Z" fill="#999999"/>
<path d="M39.9106 231.215C39.9106 231.215 144.787 281.465 214.705 305.355C284.623 329.244 341.015 274.837 410.933 274.837C480.85 274.837 476.711 293.892 564.293 247.69C631.92 212.015 739.088 408.327 739.088 408.327V420.684C739.088 420.684 634.211 420.684 564.293 420.684C494.376 420.684 459.417 420.684 389.499 420.684C319.581 420.684 284.623 420.684 214.705 420.684C144.787 420.684 39.9106 420.684 39.9106 420.684V231.215Z" fill="#A6CEE3" fill-opacity="0.8"/>
<path d="M39.9106 321.83C39.9106 321.83 144.787 91.1724 214.705 91.1724C284.623 91.1724 319.581 309.474 389.499 309.474C459.417 309.474 494.376 144.718 564.293 144.718C634.211 144.718 739.088 305.355 739.088 305.355V420.684C739.088 420.684 634.211 420.684 564.293 420.684C494.376 420.684 459.417 420.684 389.499 420.684C319.581 420.684 284.623 420.684 214.705 420.684C144.787 420.684 39.9106 420.684 39.9106 420.684V321.83Z" fill="#4180C6" fill-opacity="0.8"/>
</svg>
